<svg xmlns="http://www.w3.org/2000/svg" viewBox="0 0 32 32" width="32" height="32">
  <!-- 배경 원 -->
  <circle cx="16" cy="16" r="15" fill="#667eea" stroke="#4c63d2" stroke-width="2"/>
  
  <!-- ProudBiz 로고 - P와 B를 조합한 디자인 -->
  <path d="M8 8h8c2.2 0 4 1.8 4 4s-1.8 4-4 4h-4v8H8V8zm4 6h4c0.6 0 1-0.4 1-1s-0.4-1-1-1h-4v2z" fill="white"/>
  
  <!-- B 부분 -->
  <path d="M18 8h6c2.2 0 4 1.8 4 4s-1.8 4-4 4h-2l4 8h-2l-3-6h-1v6h-2V8zm2 6h4c0.6 0 1-0.4 1-1s-0.4-1-1-1h-4v2z" fill="white"/>
  
  <!-- 프라이드 상징 - 작은 별들 -->
  <circle cx="12" cy="24" r="1" fill="#ffd700"/>
  <circle cx="20" cy="24" r="1" fill="#ffd700"/>
  <circle cx="16" cy="26" r="1" fill="#ffd700"/>
</svg>
