<svg xmlns="http://www.w3.org/2000/svg" viewBox="0 0 32 32" width="32" height="32">
  <!-- 배경 원 -->
  <circle cx="16" cy="16" r="15" fill="#667eea" stroke="#4c63d2" stroke-width="1"/>
  
  <!-- 비즈니스 건물/오피스 -->
  <rect x="8" y="12" width="16" height="12" fill="white" rx="1"/>
  
  <!-- 건물 창문들 -->
  <rect x="10" y="14" width="2" height="2" fill="#667eea"/>
  <rect x="14" y="14" width="2" height="2" fill="#667eea"/>
  <rect x="18" y="14" width="2" height="2" fill="#667eea"/>
  <rect x="10" y="18" width="2" height="2" fill="#667eea"/>
  <rect x="14" y="18" width="2" height="2" fill="#667eea"/>
  <rect x="18" y="18" width="2" height="2" fill="#667eea"/>
  
  <!-- 건물 입구 -->
  <rect x="14" y="22" width="4" height="2" fill="#667eea"/>
  
  <!-- 성공/프라이드 상징 - 상단 깃발 -->
  <path d="M12 8 L16 6 L20 8 L20 10 L16 8 L12 10 Z" fill="#ffd700"/>
  <line x1="16" y1="6" x2="16" y2="10" stroke="#ffd700" stroke-width="1"/>
  
  <!-- 성장/성공 상징 - 작은 차트 -->
  <path d="M22 8 L24 6 L26 8 L26 10 L24 8 L22 10 Z" fill="#4ade80" opacity="0.8"/>
  
  <!-- 프라이드 상징 - 작은 별들 -->
  <circle cx="8" cy="8" r="0.8" fill="#ffd700"/>
  <circle cx="24" cy="12" r="0.6" fill="#ffd700"/>
</svg>
